<svg id="namatama" xmlns="http://www.w3.org/2000/svg" xmlns:xlink="http://www.w3.org/1999/xlink" viewBox="0 0 556.88 477.59" shape-rendering="geometricPrecision" text-rendering="geometricPrecision">
<style><![CDATA[
#namatama-u-hand_tr {animation: namatama-u-hand_tr__tr 10869.565217391304ms linear infinite normal forwards}@keyframes namatama-u-hand_tr__tr { 0% {transform: translate(200.589791px,178.87px) rotate(9.104921deg)} 76% {transform: translate(200.589791px,178.87px) rotate(9.104921deg)} 77.4% {transform: translate(200.589791px,178.87px) rotate(2deg)} 84% {transform: translate(200.589791px,178.87px) rotate(9.104921deg)} 100% {transform: translate(200.589791px,178.87px) rotate(9.104921deg)}} #namatama-u-hand_ts {animation: namatama-u-hand_ts__ts 10869.565217391304ms linear infinite normal forwards}@keyframes namatama-u-hand_ts__ts { 0% {transform: scale(0.430133,0.430133)} 72% {transform: scale(0.430133,0.430133)} 77.4% {transform: scale(0.45,0.45)} 79% {transform: scale(0.45,0.45)} 85.2% {transform: scale(0.430133,0.430133)} 100% {transform: scale(0.430133,0.430133)}} #namatama-u-eye_l2 {animation: namatama-u-eye_l2_c_o 10869.565217391304ms linear infinite normal forwards}@keyframes namatama-u-eye_l2_c_o { 0% {opacity: 0} 20% {opacity: 0} 20.8% {opacity: 1} 21.8% {opacity: 1} 22.6% {opacity: 0} 28.2% {opacity: 0} 29.2% {opacity: 0} 29.6% {opacity: 0} 30.2% {opacity: 0} 60% {opacity: 0} 61.2% {opacity: 1} 62.8% {opacity: 1} 63.8% {opacity: 0} 74.4% {opacity: 0} 74.6% {opacity: 1} 97% {opacity: 1} 97.6% {opacity: 0} 100% {opacity: 0}} #namatama-u-eye_l1 {animation: namatama-u-eye_l1_c_o 10869.565217391304ms linear infinite normal forwards}@keyframes namatama-u-eye_l1_c_o { 0% {opacity: 1} 20% {opacity: 1} 20.4% {opacity: 0} 22.2% {opacity: 0} 22.6% {opacity: 1} 28.2% {opacity: 1} 28.6% {opacity: 0} 29.8% {opacity: 0} 30.2% {opacity: 1} 60% {opacity: 1} 60.6% {opacity: 0} 63.4% {opacity: 0} 63.8% {opacity: 1} 74.4% {opacity: 1} 74.6% {opacity: 0} 97% {opacity: 0} 97.6% {opacity: 1} 100% {opacity: 1}} #namatama-u-eye_r2 {animation: namatama-u-eye_r2_c_o 10869.565217391304ms linear infinite normal forwards}@keyframes namatama-u-eye_r2_c_o { 0% {opacity: 0} 20% {opacity: 0} 20.8% {opacity: 1} 21.8% {opacity: 1} 22.6% {opacity: 0} 28.2% {opacity: 0} 29.2% {opacity: 0} 29.6% {opacity: 0} 30.2% {opacity: 0} 60% {opacity: 0} 61.2% {opacity: 1} 62.8% {opacity: 1} 63.8% {opacity: 0} 100% {opacity: 0}} #namatama-u-eye_r1 {animation: namatama-u-eye_r1_c_o 10869.565217391304ms linear infinite normal forwards}@keyframes namatama-u-eye_r1_c_o { 0% {opacity: 1} 20% {opacity: 1} 20.4% {opacity: 0} 22.2% {opacity: 0} 22.6% {opacity: 1} 28.2% {opacity: 1} 28.6% {opacity: 0} 29.8% {opacity: 0} 30.2% {opacity: 1} 60% {opacity: 1} 60.6% {opacity: 0} 63.4% {opacity: 0} 63.8% {opacity: 1} 100% {opacity: 1}} #namatama-u-mouth_open {animation: namatama-u-mouth_open_c_o 10869.565217391304ms linear infinite normal forwards}@keyframes namatama-u-mouth_open_c_o { 0% {opacity: 1} 36.8% {opacity: 1} 37.2% {opacity: 0} 75.6% {opacity: 0} 76.2% {opacity: 1} 100% {opacity: 1}} #namatama-u-mouth_smile {animation: namatama-u-mouth_smile_c_o 10869.565217391304ms linear infinite normal forwards}@keyframes namatama-u-mouth_smile_c_o { 0% {opacity: 0} 36.8% {opacity: 0} 37.2% {opacity: 1} 75.6% {opacity: 1} 76.2% {opacity: 0} 100% {opacity: 0}}
]]></style>
<defs><linearGradient id="namatama-u-finger-fill" x1="0.771321" y1="-0.323432" x2="0.355907" y2="0.778619" spreadMethod="pad" gradientUnits="objectBoundingBox" gradientTransform="translate(0 0)"><stop id="namatama-u-finger-fill-0" offset="0%" stop-color="#fbfbfb"/><stop id="namatama-u-finger-fill-1" offset="100%" stop-color="#e1e1e1"/></linearGradient><linearGradient id="namatama-u-hand2-fill" x1="0.641548" y1="0.156404" x2="0.278266" y2="1.248136" spreadMethod="pad" gradientUnits="objectBoundingBox" gradientTransform="translate(0 0)"><stop id="namatama-u-hand2-fill-0" offset="0%" stop-color="#fff"/><stop id="namatama-u-hand2-fill-1" offset="100%" stop-color="#606060"/></linearGradient><linearGradient id="namatama-u-yolk_normal-fill" x1="0.516876" y1="0.494471" x2="0.023175" y2="0.979425" spreadMethod="pad" gradientUnits="objectBoundingBox" gradientTransform="translate(0 0)"><stop id="namatama-u-yolk_normal-fill-0" offset="0%" stop-color="#da7207"/><stop id="namatama-u-yolk_normal-fill-1" offset="100%" stop-color="#403830"/></linearGradient><linearGradient id="namatama-u-yolk_darken-fill" x1="0.569769" y1="0.439663" x2="0.76272" y2="0.163242" spreadMethod="pad" gradientUnits="objectBoundingBox" gradientTransform="translate(0 0)"><stop id="namatama-u-yolk_darken-fill-0" offset="0%" stop-color="#da7207"/><stop id="namatama-u-yolk_darken-fill-1" offset="100%" stop-color="#403830"/></linearGradient><radialGradient id="namatama-u-egg-fill" cx="0" cy="0" r="0.542947" spreadMethod="pad" gradientUnits="objectBoundingBox" gradientTransform="matrix(-0.737277 0.67559 -0.67559 -0.737277 0.5 0.5)"><stop id="namatama-u-egg-fill-0" offset="65%" stop-color="#fbfbf5"/><stop id="namatama-u-egg-fill-1" offset="100%" stop-color="#c5c5c5"/></radialGradient></defs><g id="namatama-u-container" transform="matrix(.831845 0 0 0.831845 16.540649 40.154119)"><g id="namatama-u-hand_tr" transform="translate(200.589791,178.87) rotate(9.104921)"><g id="namatama-u-hand_ts" transform="scale(0.430133,0.430133)"><g id="namatama-u-hand" transform="translate(-525.148491,-333.128298)"><path id="namatama-u-finger" d="M239.13,187.02c.91-29.01,10.89-61.13,46.67-71.97c24.46-7.41,40.08-4.81,55.03,21.1c15.04,26.07,14.29,54.88,18.55,82.94c2.67,17.58,5.54,35.13,8.21,52.7.25,1.67-.3,3.46-.48,5.2-1.56-.95-3.24-1.76-4.67-2.89-7.88-6.21-15.24-13.25-23.64-18.61-16.79-10.71-33.66-21.53-51.44-30.3-11.32-5.58-24.25-8.01-36.65-10.97-6.33-1.51-10.22-3.77-10.41-10.93-.16-6.33-.9-12.64-1.18-16.28l.01.01Z" fill="url(#namatama-u-finger-fill)" stroke="#000" stroke-width="0" stroke-miterlimit="10"/><path id="namatama-u-hand2" d="M256.33,552.01C161.9,551.27,99.92,493.4,82.46,398.85c-17.94-97.13,34.61-179.12,133.02-195.23c28.21-4.62,63.53,9.04,89.86,24.25c35.73,20.65,65.23,51.83,98.9,76.44c12.56,9.18,29.09,17.04,44.23,17.86c59.76,3.27,85.76,70.8,63.91,97.58-55.84,68.43-121.23,121.64-214.29,128.28-17.22,1.23-34.38,3.26-41.75,3.97l-.01.01Z" fill="url(#namatama-u-hand2-fill)" stroke="#000" stroke-width="0" stroke-miterlimit="10"/></g></g></g><g id="namatama-u-yolk" transform="matrix(.711535 0.03729-.03729 0.711535 111.884788 41.403438)"><path id="namatama-u-yolk_normal" d="M337.16,267.23c-.21,24.54-11.4,39.16-30.54,45.84-15.43,5.38-29.88,2.84-40.89-8.18-6.18-6.18-8.66-16.3-12.11-24.93-14.34-35.95-32.74-69.68-54.67-101.52-3.95-5.74-8.25-11.24-12.32-16.9-.65-.9-.93-2.06-1.38-3.1c1.44.28,3.15.14,4.28.89c28.2,18.43,56.05,37.42,84.63,55.23c12.5,7.79,26.49,13.19,39.78,19.72c15.73,7.74,22.98,20.7,23.22,32.94v.01Z" transform="translate(293.111346-146.032288)" fill="url(#namatama-u-yolk_normal-fill)" stroke-width="0"/><path id="namatama-u-yolk_darken" style="mix-blend-mode:darken" d="M337.16,267.23c-.21,24.54-11.4,39.16-30.54,45.84-15.43,5.38-29.88,2.84-40.89-8.18-6.18-6.18-8.66-16.3-12.11-24.93-14.34-35.95-32.74-69.68-54.67-101.52-3.95-5.74-8.25-11.24-12.32-16.9-.65-.9-.93-2.06-1.38-3.1c1.44.28,3.15.14,4.28.89c28.2,18.43,56.05,37.42,84.63,55.23c12.5,7.79,26.49,13.19,39.78,19.72c15.73,7.74,22.98,20.7,23.22,32.94v.01Z" transform="translate(293.111346-146.032288)" fill="url(#namatama-u-yolk_darken-fill)" stroke-width="0"/></g><path id="namatama-u-egg" d="M15,134.99c-.0947-24.82,6.2099-50.094,20.678-70.294C51.98,41.935,77.631,27.01,104.64,19.428c36.305-10.192,75.107-8.0428,112.09-.66784c39.009,7.7788,76.974,21.336,111.36,41.289c14.236,8.263,28.01,17.757,38.712,30.24c10.702,12.484,18.167,28.28,18.2,44.7.033,16.363-7.3191,32.141-17.918,44.636-10.598,12.496-24.278,22.027-38.44,30.304-34.321,20.059-72.335,33.527-111.36,41.289-36.989,7.359-75.797,9.566-112.09-.6679-27.288-7.6944-53.135-22.931-69.515-46.004-14.236-20.053-20.584-44.993-20.678-69.558L15,134.99Z" transform="matrix(0-1.294773 1.492347 0 140.854516 496.750902)" fill="url(#namatama-u-egg-fill)" stroke="#a8a8a4" stroke-width="0"/><path id="namatama-u-eye_l2" d="M276.15,122.67c6.13-6.06,16.85-6.08,23.5-3.59c2.73,1.02,4.87,2.73,6.83,4.77.06.38.11.76.17,1.15-.06.19-.02.35.14.48-.55,4.4-2.04,5.56-5.99,3.91-6.67-2.79-13.33-3.23-20.16-.87-1.74.6-3.58.66-4.69-.68-1.26-1.51-.96-3.47.21-5.15l-.01-.02Z" transform="matrix(.999812 0.019405-.019405 0.999812 1.386364-8.117027)" opacity="0" stroke-width="0"/><path id="namatama-u-eye_l1" d="M302.2,115.23c-3.85.61-7.57,1.19-11.28,1.78c0,.17-.02.33-.02.5c3.11,1.29,6.19,2.61,9.32,3.84c1.64.65,2.28,1.47,1.77,3.39-.88,3.36-1.92,6.58-4.49,9.04-4,3.83-9,4.03-13.31.55-5.45-4.4-7.14-10.48-7.34-17.09-.15-5,.81-9.78,3.99-13.9c4.19-5.42,10.44-6,15.34-1.22c3.58,3.49,5.37,7.89,6.02,13.1v.01Z" transform="matrix(.999812 0.019405-.019405 0.999812 1.270157-8.090125)" stroke-width="0"/><path id="namatama-u-eye_r2" d="M387.87,123.03c6.13-6.06,16.85-6.08,23.5-3.59c2.73,1.02,4.87,2.73,6.83,4.77.06.38.11.76.17,1.15-.06.19-.02.35.14.48-.55,4.4-2.04,5.56-5.99,3.91-6.67-2.79-13.33-3.23-20.16-.87-1.74.6-3.58.66-4.69-.68-1.26-1.51-.96-3.47.21-5.15l-.01-.02Z" transform="translate(-3.849621-1.924809)" opacity="0" stroke-width="0"/><path id="namatama-u-eye_r1" d="M413.97,113.23c-3.81.8-7.5,1.58-11.18,2.35c0,.17,0,.33,0,.5c3.17,1.13,6.32,2.29,9.5,3.36c1.67.56,2.35,1.35,1.94,3.3-.71,3.4-1.58,6.67-4.03,9.26-3.8,4.03-8.79,4.48-13.27,1.22-5.66-4.12-7.66-10.11-8.19-16.7-.4-4.99.31-9.81,3.28-14.08c3.91-5.63,10.12-6.52,15.26-1.99c3.75,3.31,5.77,7.61,6.67,12.78h.02Z" transform="translate(-3.849621-1.924809)" stroke-width="0"/><path id="namatama-u-cheek_l" d="M264.38,161.09c.67,0,1.33,0,2,0c.55.28,1.09.79,1.65.8c6.93.22,10.76,8.49,9.54,14.36-1.99,9.58-10.3,18.19-19.87,19.79-6.45,1.08-12.5-1.14-14.22-8.45-.08-.35-.41-.64-.62-.96c0-1.34,0-2.67,0-4.01.28-.55.68-1.07.82-1.66c2.18-8.59,7.35-14.66,15.41-18.24c1.67-.74,3.51-1.11,5.28-1.65l.01.02Z" transform="translate(-3.849621-1.924809)" fill="rgba(173,61,76,0.67)" stroke-width="0"/><path id="namatama-u-cheek_r" d="M457.6,179.28c-.12,8.96-7.17,13.95-16.48,11.6-9.73-2.45-17.72-10.88-18.55-20.81-.75-9.03,6.57-15.06,14.86-13.21c9.96,2.22,17.01,8.4,19.65,18.73.31,1.2.36,2.46.52,3.69Z" transform="translate(-3.849621-1.924809)" fill="rgba(176,63,78,0.69)" stroke-width="0"/><path id="namatama-u-mouth_open" d="M349.17,159.19c11.34-.27,22.64-.18,33.73,2.53c2.36.58,4.6,1.61,6.95,2.23c2.41.64,2.77,2.17,2.09,4.18-2.89,8.48-8.11,15.49-15,20.94-5.36,4.25-12.05,5.3-18.97,5.61-10.43.48-18.55-4.23-25.75-10.69-4.57-4.1-8.27-9.2-12.2-13.98-1.38-1.68-1.38-3.28,1.15-4.44c8.91-4.07,18.32-5.79,27.99-6.39l.01.01Z" transform="matrix(.928323 0 0 0.762524 18.614696 50.563619)" fill="#ae4956" stroke-width="0"/><path id="namatama-u-mouth_smile" d="M349.87,191.09c-3.52-.7-7.1-1.16-10.53-2.14-9.79-2.78-18.15-7.7-23.59-16.69-.3-.49-.55-1.01-.98-1.79c1.52-.83,3-1.64,4.8-2.62c7.81,12.86,19.75,17.73,34.11,17.72c14.28,0,26.11-4.94,34.1-17.63c1.76.89,3.34,1.69,5.01,2.53-6.3,10.89-15.99,16.37-27.55,19.1-2.76.65-5.58,1.02-8.37,1.52h-7Z" transform="translate(-3.849621 0)" opacity="0" fill="#b03f4e" stroke-width="0"/></g></svg>
