<?xml version="1.0" encoding="UTF-8" standalone="no"?>
<!DOCTYPE svg PUBLIC "-//W3C//DTD SVG 1.1//EN" "http://www.w3.org/Graphics/SVG/1.1/DTD/svg11.dtd">
<svg width="100%" height="100%" viewBox="0 0 64 64" version="1.1" xmlns="http://www.w3.org/2000/svg"
    xmlns:xlink="http://www.w3.org/1999/xlink" xml:space="preserve"
    xmlns:serif="http://www.serif.com/"
    style="fill-rule:evenodd;clip-rule:evenodd;stroke-linejoin:round;stroke-miterlimit:2;" id="img"
    fill="currentColor">
    <g transform="matrix(2.56,0,0,2.56,-25.6,-460.8)">
        <path d="M24.907,180.234C23.317,179.922 21.683,179.922 20.093,180.234L18.941,184.506C18.382,184.755 17.852,185.062 17.357,185.421L13.08,184.283C12.016,185.503 11.199,186.919 10.674,188.451L13.798,191.585C13.734,192.193 13.734,192.807 13.798,193.415L10.674,196.549C11.199,198.081 12.016,199.497 13.08,200.717L17.357,199.579C17.852,199.938 18.382,200.245 18.941,200.494L20.093,204.766C21.683,205.078 23.317,205.078 24.907,204.766L26.059,200.494C26.618,200.245 27.148,199.938 27.643,199.579L31.92,200.717C32.984,199.497 33.801,198.081 34.326,196.549L31.202,193.415C31.266,192.807 31.266,192.193 31.202,191.585L34.326,188.451C33.801,186.919 32.984,185.503 31.92,184.283L27.643,185.421C27.148,185.062 26.618,184.755 26.059,184.506L24.907,180.234ZM22.5,188.75C24.57,188.75 26.25,190.43 26.25,192.5C26.25,194.57 24.57,196.25 22.5,196.25C20.43,196.25 18.75,194.57 18.75,192.5C18.75,190.43 20.43,188.75 22.5,188.75Z"/>
    </g>
</svg>